<svg xmlns="http://www.w3.org/2000/svg" width="30" height="30" viewBox="0 0 30 30"><g><g><path fill="#487188" d="M0 15C0 6.716 6.716 0 15 0c8.284 0 15 6.716 15 15 0 8.284-6.716 15-15 15-8.284 0-15-6.716-15-15z"/></g><g><path fill="#fff" d="M11.88 15.005a3.125 3.125 0 1 1 6.25 0 3.125 3.125 0 0 1-6.25 0zm-1.689 0a4.814 4.814 0 1 0 9.628 0 4.814 4.814 0 0 0-9.628 0zM18.884 10a1.125 1.125 0 1 0 1.126-1.124A1.126 1.126 0 0 0 18.883 10zm-7.667 12.636c-.914-.042-1.41-.194-1.74-.323a2.914 2.914 0 0 1-1.079-.7 2.892 2.892 0 0 1-.701-1.078c-.129-.33-.281-.827-.323-1.741-.045-.989-.054-1.285-.054-3.789 0-2.504.01-2.8.054-3.789.042-.914.195-1.41.323-1.74.17-.438.373-.75.701-1.079a2.89 2.89 0 0 1 1.079-.701c.33-.129.826-.281 1.74-.323.989-.045 1.286-.054 3.788-.054s2.8.01 3.789.054c.914.042 1.41.195 1.74.323.438.17.75.373 1.079.701.328.328.53.64.701 1.078.129.33.281.827.323 1.741.045.99.054 1.285.054 3.79 0 2.503-.009 2.799-.054 3.788-.042.914-.195 1.41-.323 1.74-.17.438-.373.75-.701 1.078-.328.328-.64.531-1.078.701-.33.13-.827.281-1.741.323-.989.045-1.285.054-3.789.054-2.504 0-2.8-.009-3.788-.054zm-.077-16.95c-.998.046-1.68.204-2.276.436-.617.24-1.139.56-1.66 1.082a4.58 4.58 0 0 0-1.082 1.66c-.232.596-.39 1.278-.435 2.276-.046 1-.057 1.319-.057 3.865 0 2.546.01 2.865.057 3.865.045.998.203 1.68.435 2.276.24.616.56 1.14 1.082 1.66a4.61 4.61 0 0 0 1.66 1.082c.597.231 1.278.39 2.276.435 1 .046 1.319.057 3.865.057 2.546 0 2.865-.01 3.865-.057.998-.045 1.68-.204 2.276-.435a4.61 4.61 0 0 0 1.66-1.082 4.592 4.592 0 0 0 1.082-1.66c.231-.596.39-1.278.435-2.276.046-1 .056-1.32.056-3.865 0-2.546-.01-2.866-.056-3.865-.045-.998-.204-1.68-.435-2.276a4.61 4.61 0 0 0-1.082-1.66 4.587 4.587 0 0 0-1.66-1.082c-.596-.232-1.278-.39-2.275-.435-1-.046-1.32-.057-3.865-.057-2.546 0-2.866.01-3.866.057z"/></g></g></svg>