<svg xmlns="http://www.w3.org/2000/svg" width="30" height="30" viewBox="0 0 30 30"><g><g><path fill="#487188" d="M0 15C0 6.716 6.716 0 15 0c8.284 0 15 6.716 15 15 0 8.284-6.716 15-15 15-8.284 0-15-6.716-15-15z"/></g><g><path fill="#fff" d="M14.403 19.415l-2.534 2.294s-.197.152-.415.065c0 0-.197-.022-.415-.743-.24-.742-1.42-4.608-1.42-4.608l-3.91-1.31s-.59-.22-.655-.678c-.065-.459.677-.72.677-.72l15.53-6.095s1.267-.568 1.289.371l-2.774 13.936s-.393.961-1.442.502zm-3.976-3.495a.322.322 0 0 0-.13.372l1.026 3.363c.065.197.35.175.393-.043l.24-2.053a.23.23 0 0 1 .11-.197c.83-.743 7.011-6.29 7.273-6.553.284-.306.197-.35.197-.35.022-.327-.525 0-.525 0z"/></g></g></svg>