<svg id="Layer_1" data-name="Layer 1" xmlns="http://www.w3.org/2000/svg" xmlns:xlink="http://www.w3.org/1999/xlink" viewBox="0 0 512 512"><defs><style>.cls-1{fill:none;}.cls-2{clip-path:url(#clip-path);}.cls-3{fill:#6e3eaa;}</style><clipPath id="clip-path" transform="translate(0 0)"><rect class="cls-1" width="512" height="512"/></clipPath></defs><title>viber</title><g class="cls-2"><path class="cls-3" d="M320.09,140.91a341.58,341.58,0,0,0-128.19,0c-18.6,4.14-42,26.57-46.59,44.61a245.19,245.19,0,0,0,0,105.2c4.57,18,28,40.47,46.59,44.61h0a1.76,1.76,0,0,1,1.43,1.73V388.2a2.84,2.84,0,0,0,4.9,2l24.29-24.93,22.83-23.44a1.73,1.73,0,0,1,1.3-.53,341.83,341.83,0,0,0,73.43-5.93c18.6-4.15,42-26.57,46.59-44.61a244.93,244.93,0,0,0,0-105.2c-4.57-18-28-40.47-46.58-44.61m.65,152.42c-3.72,7.9-9.14,14.47-16.94,18.67-2.2,1.18-4.84,1.56-7.33,2.33-2.86-.87-5.58-1.45-8.12-2.5-26.23-10.88-50.37-24.92-69.49-46.44-10.87-12.24-19.39-26.05-26.58-40.68-3.41-6.93-6.29-14.14-9.22-21.3-2.67-6.53,1.26-13.27,5.41-18.19a42.74,42.74,0,0,1,14.31-10.75c4.23-2,8.4-.86,11.49,2.73a148.15,148.15,0,0,1,17.78,24.89c3.06,5.53,2.22,12.28-3.32,16-1.35.91-2.57,2-3.83,3a12.54,12.54,0,0,0-2.89,3,8.34,8.34,0,0,0-.56,7.32c6.83,18.76,18.33,33.35,37.22,41.21,3,1.26,6.06,2.72,9.54,2.32,5.83-.68,7.72-7.08,11.8-10.42a11.13,11.13,0,0,1,13.4-.59c4.3,2.73,8.47,5.65,12.62,8.6a143.81,143.81,0,0,1,11.87,9c3.61,3.18,4.85,7.35,2.82,11.66m-33.61-61.16-.26,0h-1l.61,0c-2.62-.09-4-1.64-4.33-4.15a43.1,43.1,0,0,0-.81-5.48,15.42,15.42,0,0,0-5.69-8.93,14.91,14.91,0,0,0-4.64-2.24c-2.11-.61-4.29-.44-6.39-1a3.92,3.92,0,0,1-3.18-4.55,4.12,4.12,0,0,1,4.35-3.31c13.3,1,22.81,7.84,24.17,23.5a10.83,10.83,0,0,1,0,3.33,3.42,3.42,0,0,1-2.86,2.77h.05m-8.53-35.79a46.77,46.77,0,0,0-13-4c-2-.32-3.93-.52-5.9-.79a3.73,3.73,0,0,1-3.54-4.19,3.69,3.69,0,0,1,4.11-3.64,53.94,53.94,0,0,1,22.48,5.86c14.23,7.54,22.37,19.44,24.74,35.33.11.72.28,1.43.33,2.15.13,1.78.22,3.57.35,5.92a15.64,15.64,0,0,1-.34,2.38c-.91,3.44-6.13,3.88-7.34.4a10.34,10.34,0,0,1-.41-3.32,41.55,41.55,0,0,0-5.26-20.85,38.81,38.81,0,0,0-16.27-15.27m44,49.1c-2.75,0-4-2.27-4.17-4.73-.35-4.88-.6-9.79-1.27-14.63-3.55-25.56-23.93-46.7-49.37-51.24-3.83-.68-7.74-.86-11.62-1.27-2.45-.26-5.66-.4-6.2-3.45a4.19,4.19,0,0,1,4.13-4.72c.66,0,1.32,0,2,0h0l15.1.43-15-.42c34.27,1,62.4,23.76,68.44,57.65,1,5.78,1.4,11.69,1.85,17.55.19,2.47-1.2,4.81-3.87,4.84" transform="translate(0 0)"/><path class="cls-3" d="M256,0C114.61,0,0,114.62,0,256S114.61,512,256,512,512,397.39,512,256,397.38,0,256,0M391.43,296.32l-.08.34c-6.84,27.65-37.68,57.32-66,63.5l-.32.07a368,368,0,0,1-69,6.55c-6.78,0-13.57-.21-20.36-.59l-31.27,32.51a12.41,12.41,0,0,1-21.36-8.6V359.23c-27.26-7.78-55.8-36.09-62.36-62.57l-.08-.34a270.21,270.21,0,0,1,0-116.4l.08-.34c6.85-27.65,37.69-57.32,66-63.5L187,116a366.73,366.73,0,0,1,138,0l.32.07c28.32,6.17,59.16,35.85,66,63.5l.08.34a270.23,270.23,0,0,1,0,116.4" transform="translate(0 0)"/></g></svg>