<svg id="Layer_1" data-name="Layer 1" xmlns="http://www.w3.org/2000/svg" xmlns:xlink="http://www.w3.org/1999/xlink" viewBox="0 0 512 512"><defs><style>.cls-1{fill:none;}.cls-2{clip-path:url(#clip-path);}.cls-3{fill:#75b73b;}</style><clipPath id="clip-path" transform="translate(0 0)"><rect class="cls-1" width="512" height="512"/></clipPath></defs><title>whatts</title><g class="cls-2"><path class="cls-3" d="M256,140.07A114.73,114.73,0,0,0,141.26,254.8a113.43,113.43,0,0,0,12.47,52.08l5.07,9.94-9.55,46.35,45.37-10.75,10.3,5.13a114.81,114.81,0,0,0,132.2-21.64A114.74,114.74,0,0,0,256,140.07m77.11,162.37c-5.56,8.76-14.36,19.46-25.38,22.13-19.43,4.71-49.27.11-86.52-34.66-32.25-30.1-40.78-55.17-38.76-75.06,1.14-11.28,10.54-21.46,18.46-28.16a10.58,10.58,0,0,1,16.53,3.78l11.94,27a10.58,10.58,0,0,1-1.31,10.75L222,236.07a10.33,10.33,0,0,0-.82,11.46c7.21,12.56,35.45,37.67,48.88,43.11a10.33,10.33,0,0,0,11.24-2.37l6.94-7.07a10.59,10.59,0,0,1,10.47-2.76l28.38,8.15a10.59,10.59,0,0,1,6,15.86" transform="translate(0 0)"/><path class="cls-3" d="M256,0C114.62,0,0,114.62,0,256S114.62,512,256,512,512,397.39,512,256,397.39,0,256,0M402.46,259.49c-2.49,79.72-69,143-148.74,141.83a145.84,145.84,0,0,1-63-15.28l-74,17.53a5.7,5.7,0,0,1-6.9-6.7l15.56-75.51a145.89,145.89,0,0,1-16-66.09c-.24-78.12,61.34-143.1,139.37-146.81a146.54,146.54,0,0,1,153.62,151" transform="translate(0 0)"/></g></svg>